<?xml version="1.0" encoding="UTF-8" standalone="no"?>
<!-- Created with Inkscape (http://www.inkscape.org/) -->

<svg
   version="1.1"
   id="svg1"
   width="4000"
   height="2660"
   viewBox="0 0 4000 2660"
   sodipodi:docname="cnc_form.svg"
   inkscape:version="1.3.2 (091e20e, 2023-11-25, custom)"
   xmlns:inkscape="http://www.inkscape.org/namespaces/inkscape"
   xmlns:sodipodi="http://sodipodi.sourceforge.net/DTD/sodipodi-0.dtd"
   xmlns="http://www.w3.org/2000/svg"
   xmlns:svg="http://www.w3.org/2000/svg">
  <defs
     id="defs1">
    <clipPath
       clipPathUnits="userSpaceOnUse"
       id="clipPath1">
      <rect
         style="opacity:0.148718;fill:#ffbd50;stroke:#000000;stroke-width:4.40315;stroke-linejoin:bevel"
         id="rect2"
         width="4018.3149"
         height="967.03296"
         x="-10.989011"
         y="802.19781" />
    </clipPath>
  </defs>
  <sodipodi:namedview
     id="namedview1"
     pagecolor="#ffffff"
     bordercolor="#000000"
     borderopacity="0.25"
     inkscape:showpageshadow="2"
     inkscape:pageopacity="0.0"
     inkscape:pagecheckerboard="0"
     inkscape:deskcolor="#d1d1d1"
     inkscape:zoom="0.273"
     inkscape:cx="2000"
     inkscape:cy="1329.6703"
     inkscape:window-width="1920"
     inkscape:window-height="1010"
     inkscape:window-x="-6"
     inkscape:window-y="-6"
     inkscape:window-maximized="1"
     inkscape:current-layer="g1" />
  <g
     inkscape:groupmode="layer"
     inkscape:label="Image"
     id="g1">
    <path
       style="fill:#ffbd50;fill-opacity:1"
       d="m 1719.759,1012.6226 c 0.2771,-49.26664 0.2815,-49.36154 2.4715,-54.03134 5.2147,-11.119 15.1471,-16.2181 35.7485,-18.3526 14.498,-1.5021 59.7464,-0.5231 68.7085,1.4865 13.1513,2.949 21.4244,8.2217 25.4273,16.2055 2.1467,4.2817 2.2075,5.1138 2.2075,30.1983 v 25.79544 l -2.874,5.5208 c -5.2266,10.0398 -15.6168,15.4531 -33.1421,17.2671 -4.8102,0.4979 -22.9958,0.9126 -40.4124,0.9215 l -31.6667,0.016 v 12.1629 12.1629 h -13.3729 -13.3728 z m 98.7635,1.5679 c 2.6236,-0.5528 5.859,-1.8464 7.1898,-2.8747 l 2.4196,-1.8698 v -20.91644 c 0,-23.1771 0.1295,-22.6736 -6.4199,-24.951 -5.2288,-1.8181 -62.9438,-1.7819 -68.342,0.043 -7.4518,2.5191 -7.1429,1.3141 -7.1429,27.861 v 23.71304 h 33.7627 c 20.4669,0 35.6411,-0.3958 38.5327,-1.005 z m 716.276,37.1731 v -10.9068 l 17.8572,-0.01 c 19.1501,-0.01 23.5158,-0.6725 27.6175,-4.219 l 2.6206,-2.2659 -29.0476,-0.046 c -15.9762,-0.025 -33.0649,-0.4614 -37.9748,-0.9694 -20.5774,-2.1292 -32.1978,-7.4738 -37.5887,-17.2882 -1.9555,-3.5602 -2.0556,-4.927 -2.0556,-28.06824 0,-27.3693 0.1176,-27.9574 7.0726,-35.3698 4.4923,-4.7877 12.0826,-8.4507 22.2041,-10.7155 10.5959,-2.3709 59.8666,-2.3159 71.1843,0.08 14.9275,3.1595 26.3771,9.9912 31.155,18.5896 1.5534,2.7954 1.7441,6.4598 1.9982,38.3874 0.1888,23.72584 -0.065,36.55894 -0.7742,39.14644 -1.1628,4.242 -7.1009,11.1699 -12.3638,14.4244 -9.614,5.9451 -22.957,8.7467 -45.4762,9.5485 l -16.4286,0.5849 z m 49.5238,-59.16244 v -21.1232 l -2.7163,-2.6685 c -5.4141,-5.3187 -10.7123,-6.0758 -42.5218,-6.0758 -26.1742,0 -28.8777,0.1494 -32.2219,1.7808 -2.0078,0.9795 -4.0435,2.7962 -4.5238,4.0373 -1.269,3.2789 -1.1099,36.15394 0.1885,38.95344 0.9888,2.132 5.4529,4.6589 9.8906,5.5986 1.0476,0.2219 17.6547,0.4522 36.9047,0.5119 l 35,0.1086 z M 1277.6722,1049.14 c 0.01,-0.9164 1.292,-11.3496 2.8509,-23.1851 1.5588,-11.8354 2.8371,-22.0452 2.8406,-22.6884 0,-0.8796 3.3112,-1.1695 13.3396,-1.1695 13.2058,0 13.3329,0.02 13.2875,2.1051 -0.025,1.1578 -2.0802,11.9991 -4.5667,24.0919 l -4.5208,21.9867 -11.6238,0.2627 c -10.6171,0.2399 -11.6224,0.1184 -11.6073,-1.4034 z m 1494.7925,-2.8356 c 0.3239,-2.4443 1.7367,-13.2856 3.1396,-24.0919 l 2.5508,-19.6477 13.6698,-0.2603 13.6698,-0.2602 -0.517,2.1315 c -0.2843,1.1723 -2.5391,12.1307 -5.0107,24.3521 l -4.4938,22.2206 h -11.7987 -11.7987 z m 576.6195,-9.2672 c -1.9113,-1.2031 -33.2023,-37.54534 -78.619,-91.31054 l -5.3347,-6.3153 h 16.0853 16.0853 l 28.5106,33.63 c 15.6809,18.4966 28.9392,33.62254 29.463,33.61324 0.5238,-0.01 13.5953,-15.12224 29.0476,-33.58424 l 28.0953,-33.5674 16.0064,-0.046 c 15.2921,-0.044 15.9508,0.03 14.7619,1.6532 -6.1645,8.4161 -80.0128,94.44574 -82.1969,95.75524 -3.5039,2.1008 -8.7203,2.176 -11.9048,0.1716 z M 106.2271,989.88056 c 0,-31.7449 0.3527,-49.1454 1.05141,-51.8714 2.74628,-10.7143 17.57522,-19.8925 36.89834,-22.8378 3.68545,-0.5618 14.44016,-1.0214 23.89935,-1.0214 h 17.19852 v 11.0885 11.0886 l -14.49298,0.6629 c -22.60286,1.034 -33.48558,3.4503 -35.95498,7.9832 -0.53934,0.99 -0.98061,5.8274 -0.98061,10.7498 v 8.9497 h 55.71428 55.71429 v 11.6951 11.6951 h -55.71429 -55.71428 v 24.79364 24.7935 H 120.03662 106.2271 Z m 193.15256,46.84914 c -18.18377,-2.2415 -31.64189,-9.6385 -36.62604,-20.1308 -2.13771,-4.5002 -2.22255,-5.5528 -2.2315,-27.68494 l -0.009,-23.0068 2.97629,-5.8511 c 4.71147,-9.2625 14.51689,-15.4643 29.88086,-18.8993 4.19557,-0.9381 13.81407,-1.2738 36.19047,-1.2634 26.21473,0.012 31.3418,0.2467 36.66667,1.6769 13.65691,3.6681 20.29915,8.3763 24.67296,17.4888 2.46063,5.1265 2.4699,5.2371 2.4699,29.4716 0,23.62164 -0.0645,24.45324 -2.22732,28.72724 -2.57644,5.0914 -8.70233,10.9676 -14.42174,13.834 -9.70909,4.866 -16.74316,5.83 -44.77951,6.1367 -14.40477,0.1576 -29.05754,-0.067 -32.56173,-0.4989 z m 57.04037,-23.7622 c 2.72516,-0.8583 6.26088,-2.6402 7.85714,-3.9597 l 2.90231,-2.3991 v -18.54584 -18.5458 l -2.90045,-2.3976 c -5.18723,-4.2879 -8.94305,-4.7851 -36.14717,-4.7854 -27.7034,-4e-4 -33.02485,0.7783 -38.98428,5.7045 l -2.92048,2.4141 v 17.7549 c 0,9.7651 0.41147,18.51014 0.91437,19.43334 1.22238,2.2437 9.28419,5.5611 16.01586,6.5902 2.9979,0.4584 15.09358,0.7127 26.87929,0.5652 16.81582,-0.2104 22.49516,-0.6041 26.38341,-1.8288 z m 53.61659,-12.66 v -37.34254 l 3.09524,-5.8457 c 6.64683,-12.5534 21.54712,-17.6819 51.42857,-17.7008 l 11.19048,-0.01 v 11.1039 11.1039 l -15,0.4619 c -15.8471,0.4881 -22.14973,1.9147 -24.0754,5.4495 -0.54952,1.0087 -0.9246,15.5754 -0.9246,35.90834 v 34.2111 h -12.85714 -12.85715 z m 80.18775,0.1522 c 0.28337,-36.53604 0.32701,-37.27274 2.48009,-41.86844 4.42066,-9.4358 12.87741,-15.0502 26.86289,-17.8341 6.30716,-1.2555 11.2052,-1.4765 24.18893,-1.0911 17.91294,0.5316 27.30014,2.4231 34.25178,6.9019 l 3.68573,2.3746 4.4382,-2.373 c 2.441,-1.3052 7.85385,-3.3414 12.02855,-4.5249 6.75634,-1.9153 9.631,-2.1525 26.1618,-2.1586 20.72239,-0.01 24.89459,0.7565 34.28571,6.2801 6.23139,3.6651 10.81709,9.8793 12.29871,16.6662 0.64028,2.9329 1.03462,18.0943 1.03462,39.77844 V 1037.65 H 659.08424 646.2271 v -32.7927 c 0,-27.04914 -0.24566,-33.25934 -1.40259,-35.45724 -5.09868,-9.6861 -38.32869,-11.6845 -47.32553,-2.8462 l -2.70045,2.6529 v 34.22164 34.2216 h -13.33334 -13.33333 v -34.0234 c 0,-38.93424 0.44848,-36.84284 -8.77457,-40.91934 -4.43667,-1.9609 -6.44955,-2.2253 -16.93971,-2.2253 -10.49017,0 -12.50305,0.2644 -16.93972,2.2253 -9.22305,4.0765 -8.77457,1.9851 -8.77457,40.91934 v 34.0234 h -13.38368 -13.38369 z m 237.4313,36.6199 c -18.19959,-2.4461 -31.79967,-9.768 -36.84911,-19.8385 -1.92633,-3.8418 -2.19851,-5.7746 -2.19851,-15.6119 0,-9.85054 0.27071,-11.76724 2.20756,-15.63034 2.68005,-5.3454 7.46789,-9.6281 14.0968,-12.6095 10.05199,-4.5209 14.97991,-4.9405 58.21945,-4.958 25.09166,-0.01 40.2381,-0.3547 40.2381,-0.9154 0,-1.7795 -4.04994,-4.5518 -8.12058,-5.5587 -2.2833,-0.5649 -11.89025,-1.027 -21.34878,-1.027 h -17.19731 v -10.8726 -10.8727 l 20.71428,0.4901 c 27.74838,0.6566 35.98097,2.9592 45.20115,12.6427 7.01477,7.3673 7.59549,10.4764 7.23945,38.759 -0.28411,22.56814 -0.40134,23.87604 -2.56086,28.56964 -3.63486,7.9001 -10.5846,12.8346 -22.23071,15.7844 -4.86164,1.2314 -12.40537,1.5637 -40.26807,1.774 -18.85715,0.1424 -35.57143,0.086 -37.14286,-0.1252 z m 71.63881,-23.7325 c 3.26674,-2.1228 4.30608,-5.8043 4.43398,-15.70584 l 0.11769,-9.1106 h -39.04762 c -42.10846,0 -44.36223,0.2284 -48.08035,4.8719 -1.46201,1.8259 -1.91965,3.799 -1.91965,8.27624 0,7.3582 0.47116,8.5461 4.1262,10.4029 5.05048,2.5657 11.54832,2.9666 45.39761,2.8007 27.10218,-0.1328 33.22758,-0.4017 34.97214,-1.5353 z m 56.22914,-13.35524 -0.2489,-37.6582 -7.38096,-0.2732 -7.38095,-0.2733 v -10.2523 -10.2523 h 7.61905 7.61905 v -12.6307 -12.6307 h 12.85714 12.85714 v 12.6307 12.6307 h 20.47619 20.47619 v 10.2731 10.273 l -20.23809,0.2525 -20.2381,0.2525 -0.2489,37.6582 -0.2489,37.65814 h -12.83553 -12.83553 z m 80.22729,-11.4612 v -49.1193 h 12.85714 12.85714 v 49.1193 49.11934 h -12.85714 -12.85714 z m 85.23809,48.53404 c -19.9682,-1.9991 -34.60716,-9.6344 -39.85492,-20.7874 -1.92175,-4.0842 -2.04984,-5.7888 -2.04984,-27.27884 v -22.9223 l 2.64741,-5.2961 c 4.54697,-9.096 12.55314,-14.6538 27.05805,-18.7834 7.0758,-2.0146 8.9656,-2.1152 38.866,-2.0693 29.3739,0.045 31.9213,0.1827 38.9655,2.106 9.2524,2.5262 14.578,5.5061 19.0849,10.6787 5.7936,6.6492 6.3942,10.4076 6.056,37.8939 l -0.2969,24.12174 -2.5826,4.3158 c -4.829,8.0695 -11.8353,12.6557 -24.3992,15.9712 -6.3935,1.6871 -10.5684,1.9588 -33.4944,2.1794 -14.4047,0.1386 -27.9047,0.08 -30,-0.1294 z m 54.3928,-24.0721 c 2.678,-0.8446 5.9994,-2.4091 7.381,-3.4767 l 2.5119,-1.9411 v -19.43484 c 0,-21.9088 0.2536,-21.1131 -7.6663,-24.0588 -3.3841,-1.2587 -8.6989,-1.6607 -26.3671,-1.9943 -23.1645,-0.4375 -31.6295,0.3118 -38.8438,3.4383 -7.2599,3.1463 -7.1228,2.6958 -7.1228,23.3951 0,20.87324 -0.1969,20.28174 7.6664,23.02844 7.4112,2.5889 14.1833,3.1224 36.1432,2.8476 16.6718,-0.2086 22.5093,-0.609 26.2975,-1.8037 z m 53.7234,-13.46854 c 0.024,-43.4628 -0.1267,-42.5339 8.0356,-49.5922 5.0403,-4.3584 11.4507,-7.038 21.1566,-8.8434 10.2162,-1.9004 67.2675,-1.6163 76.0249,0.3786 12.9095,2.9406 20.4585,7.5979 24.58,15.1644 2.0363,3.7384 2.0934,4.7639 2.3646,42.4248 l 0.2778,38.59374 h -12.8969 -12.8969 v -33.9414 c 0,-38.89724 0.3874,-37.06034 -8.3777,-39.72414 -4.6522,-1.4139 -9.3274,-1.6508 -32.5747,-1.6508 -28.5,0 -32.5532,0.4628 -37.4947,4.2813 l -2.5053,1.936 v 34.54954 34.5495 h -12.8571 -12.8571 z m 272.36,-23.5592 v -61.8149 l 56.4286,0.033 c 43.3388,0.025 58.0855,0.3279 63.5714,1.3058 15.4801,2.7592 25.1368,8.4926 29.9831,17.802 l 2.874,5.5208 v 35.6192 35.61914 l -2.6385,5.2783 c -4.7339,9.4698 -13.8126,15.8377 -28.1671,19.7567 -6.9882,1.908 -9.6617,2.0048 -64.6705,2.3427 l -57.381,0.3524 z m 115.2295,36.80744 c 6.3408,-1.8498 8.928,-3.4821 10.338,-6.5222 0.7563,-1.6307 1.0992,-11.56284 1.0992,-31.84224 v -29.4722 l -2.527,-2.3007 c -5.6506,-5.1446 -8.5546,-5.4549 -54.3778,-5.8103 l -42.1429,-0.3268 v 38.881 38.88104 h 41.2558 c 34.9363,0 42.0367,-0.2279 46.3547,-1.4876 z m 96.314,23.8094 c -15.1034,-1.5513 -31.953,-8.7115 -37.5922,-15.9747 -5.1072,-6.5778 -5.3806,-8.2451 -5.3706,-32.74804 0.01,-21.83 0.096,-22.9014 2.2315,-27.3965 4.1755,-8.79 14.6218,-15.5729 29.1466,-18.9252 10.5389,-2.4324 67.0732,-2.465 75.979,-0.044 12.0569,3.2778 20.3005,8.7419 24.3838,16.1622 1.8878,3.4307 2.0849,5.3595 2.3664,23.1562 l 0.3071,19.41394 h -53.3461 c -29.3404,0 -53.5667,0.3506 -53.8364,0.7792 -0.9067,1.4413 2.7328,7.095 5.6205,8.731 5.3965,3.0574 14.056,4.6154 28.805,5.1827 l 14.5238,0.5587 v 11.0863 11.0863 l -12.619,-0.1243 c -6.9405,-0.068 -16.2102,-0.4932 -20.5994,-0.944 z m 65.5994,-62.38984 c 0,-11.9583 -2.1287,-12.5483 -43.8408,-12.152 -38.5445,0.3663 -39.0164,0.5218 -39.0164,12.863 v 5.6751 h 41.4286 41.4286 z m 229.5238,62.83174 c -17.5141,-2.2107 -31.0422,-9.4168 -36.5089,-19.4471 -1.8131,-3.3268 -2.0617,-5.2553 -2.0558,-15.9473 0.01,-10.66614 0.2593,-12.62344 2.0594,-15.90534 2.8766,-5.2448 7.5052,-9.3164 13.8055,-12.1445 10.5193,-4.722 15.1303,-5.1304 58.1198,-5.148 21.8381,-0.01 39.932,-0.3761 40.2087,-0.8158 0.8364,-1.3295 -3.4799,-4.5694 -7.5335,-5.6548 -2.0962,-0.5613 -11.6266,-1.0224 -21.1905,-1.0253 l -17.3809,-0.01 v -10.8726 -10.8727 l 20.7143,0.4901 c 21.5648,0.5103 27.7008,1.4531 35.7678,5.4961 5.7772,2.8954 11.6577,8.7838 14.1243,14.1433 2.1876,4.7532 2.2507,5.5994 2.2507,30.1518 0,23.66554 -0.1258,25.52734 -1.9922,29.47164 -3.0473,6.44 -6.6351,10.0022 -13.0808,12.9877 -10.0662,4.6624 -12.9359,4.9657 -49.6889,5.2518 -18.8571,0.1469 -35.7857,0.078 -37.619,-0.1538 z m 66.9762,-22.6818 c 6.4608,-1.0435 8.5258,-3.4019 9.2795,-10.5981 0.3374,-3.2213 0.3981,-8.09254 0.135,-10.82484 l -0.4785,-4.9678 -39.1466,0.3072 c -41.1606,0.3231 -42.3705,0.4442 -47.0037,4.708 -1.812,1.6675 -2.1429,2.9464 -2.1429,8.28164 0,3.4703 0.2662,6.9912 0.5916,7.8242 0.8427,2.1574 5.6884,4.3908 11.2764,5.1973 6.5121,0.9399 61.7509,0.9991 67.4892,0.072 z m 49.4025,-14.41864 0.2879,-37.7269 2.8572,-5.4604 c 4.924,-9.4105 15.3376,-14.5414 33.2839,-16.3995 11.4704,-1.1876 50.2519,-1.1548 60.9718,0.052 20.0461,2.2559 30.8458,8.5924 34.396,20.181 1.0628,3.4693 1.3483,12.1005 1.3483,40.76754 v 36.3663 l -13.0953,-0.2603 -13.0952,-0.2603 -0.4762,-34.994 -0.4762,-34.99404 -3.3333,-1.6905 c -5.946,-3.0155 -15.9996,-3.8497 -40.8509,-3.3897 -24.0721,0.4456 -28.3459,1.0326 -32.8484,4.5119 l -2.4912,1.9251 v 34.54954 34.5495 h -13.3831 -13.3832 z m 148.3885,1.00434 c 0,-22.41054 0.3893,-38.08074 0.9905,-40.20754 2.4391,-8.6276 10.8412,-15.061 24.3091,-18.6128 6.5852,-1.7367 10.9689,-2.0509 34.2374,-2.4535 28.9003,-0.5 41.8021,0.3638 52.0994,3.4883 9.22,2.7976 14.9162,7.0156 18.3583,13.5942 l 2.8571,5.4606 v 37.4927 37.49274 l -13.0952,0.2603 -13.0953,0.2603 v -34.5759 -34.57594 l -2.5052,-1.936 c -4.9097,-3.7939 -9.0154,-4.2616 -37.4948,-4.2717 -29.2005,-0.01 -33.9894,0.5787 -38.5635,4.7432 l -2.3888,2.1749 v 34.19434 34.1943 h -12.8572 -12.8571 z m 186.6613,36.0929 c -12.3884,-1.5516 -23.0605,-5.728 -30.0237,-11.7493 -6.5889,-5.6976 -8.3021,-9.7574 -8.8203,-20.9012 -0.7656,-16.46564 3.3171,-24.52144 15.3751,-30.33814 10.7192,-5.1708 15.0876,-5.5825 59.4213,-5.6004 25.0917,-0.01 40.2381,-0.3547 40.2381,-0.9154 0,-1.7795 -4.0499,-4.5518 -8.1206,-5.5587 -2.2833,-0.5649 -11.8902,-1.027 -21.3487,-1.027 h -17.1974 v -10.8726 -10.8727 l 20.7143,0.4736 c 16.6925,0.3816 21.939,0.8269 27.0218,2.2936 8.0278,2.3164 13.8527,5.677 18.3885,10.6092 6.42,6.981 6.6623,8.1312 7.0283,33.3654 0.2127,14.66284 -0.057,24.48084 -0.7634,27.82494 -2.3176,10.9671 -10.6609,18.4516 -24.1663,21.6787 -5.7021,1.3625 -12.2308,1.6544 -40.6041,1.8155 -18.5952,0.1056 -35.3095,0 -37.1429,-0.2255 z m 71.6023,-23.6114 c 3.6752,-1.8171 4.8134,-5.4451 4.9467,-15.76774 l 0.1177,-9.1106 h -38.0952 c -20.9524,0 -39.6898,0.3325 -41.6387,0.7389 -1.9488,0.4064 -4.8417,1.8122 -6.4285,3.1239 -2.6934,2.2264 -2.8852,2.8098 -2.8852,8.77454 0,7.8956 0.4314,9.0367 4.1262,10.9137 5.0375,2.5591 11.5283,2.9597 44.9214,2.7722 24.9902,-0.1403 32.964,-0.4701 34.9356,-1.4449 z m 236.6627,23.2321 c -22.9857,-2.4242 -39.2217,-11.7231 -43.0486,-24.6553 -1.2938,-4.372 -1.5069,-8.9268 -1.2412,-26.52954 0.3022,-20.0195 0.447,-21.4841 2.498,-25.2663 4.8874,-9.0131 14.7802,-15.2996 29.2411,-18.5816 6.5777,-1.4929 11.8496,-1.7292 38.5715,-1.7292 32.9424,0 36.1549,0.3331 46.5937,4.8317 7.1663,3.0882 12.8251,7.9111 15.4519,13.1692 2.0652,4.1338 2.2496,5.8142 2.5684,23.3997 l 0.3434,18.94604 h -53.9073 c -51.9731,0 -53.9073,0.063 -53.9073,1.745 0,2.5414 3.4699,6.4694 7.471,8.4575 5.5516,2.7584 12.954,3.9505 28.0342,4.5145 l 14.0767,0.5265 -0.2672,10.8565 -0.2671,10.8564 -12.3809,0.1223 c -6.8095,0.067 -15.7332,-0.2313 -19.8303,-0.6634 z m 65.0684,-61.14804 c 0,-6.7292 -1.1745,-9.4473 -4.9591,-11.4772 -2.7959,-1.4996 -6.4208,-1.714 -33.4072,-1.9757 -42.2701,-0.4098 -44.4909,0.1904 -44.4909,12.0251 v 6.5127 h 41.4286 41.4286 z m 160.9524,50.55304 v -11.7862 h 49.8271 c 41.844,0 50.6094,-0.2282 54.7096,-1.4244 6.7247,-1.9619 8.7966,-4.7581 8.7966,-11.8723 0,-4.85494 -0.3414,-5.89484 -2.6941,-8.20604 -4.5817,-4.501 -7.693,-4.9048 -43.4964,-5.6452 -26.9965,-0.5583 -34.4082,-0.9923 -38.9877,-2.2831 -12.2237,-3.4455 -21.1921,-9.6373 -25.5441,-17.6359 -1.9089,-3.5084 -2.1349,-5.2605 -2.1349,-16.5543 0,-11.2937 0.2396,-13.1514 2.2632,-17.5495 2.6517,-5.7633 7.1344,-9.923 14.0412,-13.0293 8.8316,-3.972 16.6028,-5.0904 39.1718,-5.6375 l 21.1905,-0.5137 v 11.2269 11.2269 l -18.3333,0.5175 c -19.6049,0.5534 -24.9921,1.4768 -28.7902,4.9347 -2.1533,1.9605 -2.4003,2.9056 -2.4003,9.1834 0,6.6258 0.1444,7.099 2.7142,8.8966 4.7634,3.3321 10.4116,3.9533 43.0001,4.729 34.3836,0.8185 37.6044,1.2447 49.0927,6.4965 7.6715,3.507 12.2041,7.5828 15.2631,13.7251 2.4411,4.9015 2.5135,5.5143 2.119,17.94644 -0.3495,11.0166 -0.7252,13.5157 -2.6064,17.3413 -3.9741,8.0817 -12.342,13.2315 -25.5358,15.7152 -3.3621,0.6329 -25.9691,1.2148 -58.5707,1.5075 l -53.0952,0.4766 z m 197.7887,10.5822 c -20.2969,-2.1057 -35.908,-9.8981 -41.9166,-20.923 -1.9606,-3.5972 -2.0626,-4.9646 -2.0626,-27.64244 v -23.858 l 2.8251,-5.0106 c 3.3683,-5.9742 7.5483,-9.5806 15.2701,-13.1749 12.2995,-5.7249 15.7937,-6.1367 51.9048,-6.1161 l 32.8571,0.019 7.6685,2.5337 c 10.4747,3.4609 17.2363,8.2515 20.6155,14.6061 l 2.6684,5.0179 v 19.0731 19.07314 h -53.3333 c -52.3837,0 -53.3334,0.033 -53.3334,1.8386 0,1.0113 1.2759,3.2662 2.8353,5.011 4.6589,5.2128 17.3292,8.0661 35.9743,8.1015 l 9.7619,0.019 v 11.2272 11.2273 l -12.1429,-0.1244 c -6.6786,-0.069 -15.4951,-0.4723 -19.5922,-0.8973 z m 63.918,-63.30124 -0.2782,-7.2509 -3.8095,-1.8713 c -3.5887,-1.7627 -5.7143,-1.8712 -36.6667,-1.8712 -30.9523,0 -33.078,0.1085 -36.6666,1.8712 l -3.8096,1.8713 -0.2781,7.2509 -0.2782,7.2509 h 41.0325 41.0325 z m 39.4338,26.69154 0.288,-37.68494 2.5303,-4.678 c 3.1321,-5.7908 6.5274,-8.9932 12.8007,-12.0734 7.9639,-3.9102 15.7718,-5.262 33.9547,-5.8786 l 16.9048,-0.5732 v 11.3677 11.3677 l -11.6667,0.01 c -13.8178,0.01 -22.1916,1.1873 -25.471,3.5917 l -2.3861,1.7495 -0.4762,34.98484 -0.4762,34.9849 -13.1452,0.2606 -13.1451,0.2607 z m 258.5683,37.0336 c -0.3637,-0.3573 -0.6612,-22.4727 -0.6612,-49.14524 v -48.4956 h 13.3418 13.3418 l -0.2466,48.8854 -0.2466,48.88544 -12.4339,0.2598 c -6.8387,0.1429 -12.7316,-0.033 -13.0953,-0.3898 z m 77.5385,-0.4095 c -16.9026,-1.6104 -27.7422,-6.8301 -32.8815,-15.8336 l -2.9373,-5.1458 v -27.13264 -27.1326 l 2.8572,-5.0715 c 5.1058,-9.0631 15.0527,-14.191 31.0261,-15.9951 4.4118,-0.4982 28.9143,-0.9091 54.4501,-0.913 l 46.4285,-0.01 v 11.1744 11.1744 l -50.2381,0.2868 c -44.8672,0.2561 -50.6205,0.4569 -53.8156,1.8788 -2.1094,0.9387 -3.9658,2.5954 -4.5238,4.0372 -1.3411,3.4654 -1.2251,37.18724 0.1381,40.12634 2.854,6.1537 11.5392,7.09 65.8506,7.0991 l 42.6493,0.01 -0.2683,10.9933 -0.2684,10.9934 -45.2381,0.1109 c -24.8809,0.061 -48.8339,-0.2317 -53.2288,-0.6504 z m 157.693,-0.014 c -22.3011,-2.3141 -38.991,-11.3422 -43.0251,-23.2737 -1.3146,-3.8882 -1.5149,-8.2272 -1.2627,-27.35364 l 0.2998,-22.7324 2.5827,-4.3158 c 5.0173,-8.3843 14.527,-14.2308 28.3285,-17.4162 10.5821,-2.4424 67.0731,-2.4645 76.0349,-0.03 13.2888,3.6103 23.612,11.231 25.8263,19.0653 0.5692,2.014 1.0289,11.6559 1.0318,21.6426 l 0.01,18.01044 h -53.3334 -53.3333 v 2.4314 c 0,3.2396 4.5777,7.3392 10.2672,9.1948 6.2254,2.0305 16.9887,3.2804 28.5423,3.3146 l 9.7619,0.029 v 11.2272 11.2273 l -12.1428,-0.1244 c -6.6786,-0.069 -15.4912,-0.4719 -19.5835,-0.8966 z m 64.1073,-62.43714 c 0,-11.7125 -2.0018,-12.3138 -41.0177,-12.3208 -39.4306,-0.01 -41.8395,0.7319 -41.8395,12.8337 v 5.8732 h 41.4286 41.4286 z m 39.0476,52.23084 v -11.2272 l 40.7143,-0.01 c 22.3928,0 43.2378,-0.4114 46.322,-0.9076 7.0048,-1.127 9.1542,-2.9187 9.1542,-7.6309 0,-2.8535 -0.5203,-3.911 -2.5754,-5.2347 -2.2796,-1.46844 -6.1356,-1.72654 -33.5714,-2.24724 -33.0436,-0.6272 -37.0272,-1.1343 -46.6585,-5.9402 -5.6782,-2.8334 -8.9196,-5.8768 -11.6046,-10.896 -2.9121,-5.4437 -3.1874,-19.5016 -0.5152,-26.3052 4.8099,-12.2464 19.1202,-16.5926 54.687,-16.6092 l 16.4285,-0.01 v 11.1036 11.1037 l -20.2381,0.4871 c -12.242,0.2947 -21.461,0.9342 -23.3333,1.6186 -2.8455,1.0401 -3.0952,1.4619 -3.0952,5.2285 0,7.3514 -0.1235,7.3261 39.005,7.9846 22.9637,0.3865 35.0774,0.9472 37.6616,1.7432 15.7597,4.8547 22.1757,13.9554 21.224,30.10534 -0.7854,13.3288 -7.1755,21.5017 -19.8808,25.4276 -9.0628,2.8004 -20.3981,3.4221 -62.5336,3.4293 l -41.1905,0.01 z M 942.7178,935.57356 c -6.72317,-1.911 -11.0982,-9.5695 -8.83217,-15.4606 4.65203,-12.0942 25.99414,-12.5263 31.05439,-0.6288 4.57047,10.746 -8.28242,20.0518 -22.22222,16.0894 z m 2516.2916,-0.6842 c -5.6909,-2.6257 -8.0204,-5.9957 -8.0204,-11.6031 0,-4.007 0.4315,-5.0692 3.1399,-7.73 6.7091,-6.5909 17.9022,-6.6516 25.1391,-0.1363 6.2239,5.6034 4.8845,15.0613 -2.677,18.9026 -4.7881,2.4324 -12.9664,2.696 -17.5816,0.5668 z m -1840.6868,-5.1571 c 0.4189,-0.6922 6.3025,-8.0601 13.0746,-16.3731 l 12.3129,-15.1145 h 11.9129 11.9129 l -2.3981,2.5729 c -1.3189,1.4151 -7.86,8.783 -14.5357,16.3731 l -12.1378,13.8002 h -10.4516 c -8.4985,0 -10.3093,-0.2352 -9.6901,-1.2586 z m -1331.29299,-33.277 c -6.0692,-1.9405 -8.91117,-4.6941 -17.94879,-17.3905 -11.72692,-16.4745 -13.17962,-18.9242 -14.82702,-25.0038 -2.66649,-9.8404 -1.43245,-20.6435 4.35782,-38.1496 2.13757,-6.4627 3.09366,-11.4727 3.50347,-18.3587 l 0.56361,-9.4704 -7.9877,-2.6735 c -22.36471,-7.4857 -40.38991,0.8704 -61.78715,28.643 -14.87895,19.3123 -28.80906,29.9278 -39.27243,29.9278 -2.56982,0 -5.47736,-0.4233 -6.4612,-0.9405 -2.31692,-1.2182 -16.77385,-21.0001 -23.41086,-32.034 -9.19605,-15.2882 -17.24817,-38.5314 -16.2414,-46.8823 1.56818,-13.0077 14.91873,-31.0469 32.99485,-44.5825 17.20687,-12.8848 28.05744,-27.8306 32.44777,-44.6943 1.89023,-7.2605 2.45877,-16.1164 1.03466,-16.1164 -0.4418,0 -3.14421,0.7912 -6.00535,1.7582 -14.19226,4.7969 -17.10657,3.8083 -26.28512,-8.9163 -14.18746,-19.6686 -14.76653,-20.7552 -14.10439,-26.4646 0.63788,-5.5001 8.19972,-21.9057 18.18853,-39.4605 7.03537,-12.3642 16.03221,-21.5399 25.65856,-26.1686 6.35699,-3.0567 7.1147,-3.1971 17.25646,-3.1971 h 10.60752 l 8.25956,-4.114 c 8.42598,-4.1969 12.64256,-8.0904 23.9155,-22.083 2.07284,-2.5729 7.01993,-8.0849 10.99353,-12.2488 11.21546,-11.7528 11.99041,-17.596 3.76929,-28.4208 -2.82401,-3.7183 -3.83175,-5.9367 -3.83175,-8.435 0,-4.5287 3.8056,-11.7883 8.79247,-16.7727 4.14117,-4.1391 19.65865,-15.356 29.52539,-21.3426 l 5.46071,-3.3133 -6.91016,-9.9341 c -7.33921,-10.551 -9.84459,-14.8071 -9.12967,-15.5095 0.24202,-0.2377 2.34981,0.8281 4.68398,2.3686 5.14156,3.3932 5.80674,3.3216 23.76775,-2.5562 16.02103,-5.243 24.75006,-9.6985 30.91927,-15.7821 7.15935,-7.0599 10.05825,-12.9945 10.92832,-22.3722 0.52155,-5.6214 1.34907,-8.8112 2.9611,-11.4138 2.67237,-4.3146 14.11715,-16.24254 15.58566,-16.24359 3.17131,-0.002 13.65033,-6.16264 18.1014,-10.6414 5.58552,-5.62028 7.25429,-6.66643 13.69853,-8.58761 7.14623,-2.13047 11.31639,-1.73705 16.54841,1.56119 4.18019,2.63518 5.19766,2.87888 10.60687,2.54051 8.50131,-0.53178 15.80579,-4.26811 23.72668,-12.13646 9.51027,-9.44719 22.42404,-25.852 24.35633,-30.9407 l 1.69527,-4.46453 7.81704,11.83233 c 4.55232,6.89067 7.81703,12.82056 7.81703,14.19857 0,3.72812 -3.22225,9.30934 -10.48001,18.1523 -15.15952,18.47057 -22.3116,24.45615 -32.74113,27.40107 -6.87379,1.94091 -10.31581,1.46015 -16.3178,-2.27915 -2.69648,-1.67994 -5.92093,-2.89296 -7.69006,-2.89296 -4.02717,0 -14.15809,3.1653 -19.11246,5.97149 -8.25932,4.67814 -23.63108,16.00984 -28.85665,21.27244 -8.02567,8.0825 -10.57603,13.2762 -11.41703,23.2501 -0.83846,9.9438 -2.89876,13.9007 -11.37028,21.8374 -5.9735,5.5963 -13.45739,9.5832 -26.06134,13.8835 l -6.42771,2.193 0.60261,3.2781 c 1.6027,8.7181 6.18019,11.7596 16.53581,10.9869 7.21784,-0.5386 21.43604,-5.0773 30.95509,-9.8816 8.92831,-4.5061 19.51764,-14.7741 21.88152,-21.2175 3.90717,-10.65 6.44706,-15.0841 11.09998,-19.3782 9.54635,-8.8102 19.88457,-11.4226 43.01521,-10.8699 11.27678,0.2695 13.25337,0.5544 15.55007,2.2414 1.44713,1.063 6.80666,8.4308 11.91008,16.3731 12.06982,18.7838 12.10137,19.3061 2.0488,33.9098 -2.7662,4.0186 -5.02947,7.7309 -5.02947,8.2496 0,0.5187 -0.7898,0.6969 -1.75511,0.3959 -2.86856,-0.8944 -6.81631,2.827 -6.81631,6.4255 0,6.0883 7.49151,8.524 11.35944,3.6933 1.08564,-1.3558 1.97389,-3.006 1.97389,-3.6671 0,-0.9412 0.79874,-0.8938 3.68137,0.2186 3.08444,1.1903 4.57295,1.2388 9.17993,0.2992 6.3796,-1.301 17.9594,-6.9403 23.65996,-11.5222 11.29553,-9.0789 20.21258,-12.8109 30.55316,-12.7873 9.57088,0.022 12.76256,2.0329 20.02136,12.6153 8.23785,12.0097 23.67048,37.3986 26.60397,43.7673 4.56167,9.9036 2.36676,19.5571 -6.40621,28.1756 -5.00013,4.912 -9.49573,7.3765 -20.90897,11.4622 -9.74722,3.4893 -15.7543,7.0612 -21.32646,12.6811 -5.09824,5.1419 -10.32944,13.7143 -12.09962,19.8277 -1.47452,5.0923 -3.42755,19.3544 -3.432,25.0624 -0.003,3.4097 0.0445,3.4511 4.99732,4.3835 2.75,0.5177 7.56389,1.2216 10.69754,1.5642 8.45587,0.9245 14.76143,3.594 19.23611,8.1438 5.03251,5.1169 21.80151,31.0124 23.78417,36.7287 2.4499,7.0635 1.37044,16.8365 -3.04885,27.6031 -4.26301,10.3859 -15.08697,31.6804 -21.87192,43.0297 -8.40146,14.0532 -17.7093,21.2031 -30.68976,23.5746 -4.83104,0.8826 -6.89408,0.8029 -12.1409,-0.4691 -7.1973,-1.7448 -9.54085,-3.184 -19.60604,-12.0398 -4.13173,-3.6353 -8.96153,-6.9514 -11.31021,-7.7655 -11.11499,-3.8525 -28.72554,0.6356 -41.16665,10.4915 -26.45144,20.955 -36.10225,31.1354 -43.11775,45.4839 -5.89132,12.0493 -7.57495,19.7421 -6.82851,31.2005 1.72003,26.404 1.74111,30.6244 0.18551,37.1417 -3.24386,13.5904 -12.93571,29.4596 -22.13531,36.2439 -6.59656,4.8646 -10.54382,6.6184 -25.60797,11.3777 -23.21338,7.3339 -43.9584,11.1288 -50.10076,9.165 z m 22.05463,-209.1077 c 27.72272,-4.875 56.66928,-21.4071 81.44893,-46.5174 29.62532,-30.0207 45.29682,-62.3817 45.47567,-93.9056 0.10688,-18.8378 -1.61941,-22.5951 -12.85267,-27.9739 -12.26215,-5.8715 -29.09689,-7.6673 -45.02431,-4.8029 -6.91839,1.2442 -10.26779,2.0765 -20.47619,5.0882 -6.32106,1.8649 -26.21306,12.125 -34.95207,18.028 -35.53742,24.0046 -62.04974,60.9847 -70.37052,98.1548 -1.96071,8.7587 -2.22537,26.4858 -0.51935,34.7855 1.04651,5.0912 1.82619,6.6963 3.98693,8.2078 4.6378,3.2442 14.7186,7.4703 21.02725,8.8151 7.81199,1.6652 23.14601,1.7224 32.25633,0.1204 z m 2862.73506,205.5174 c -4.1671,-9.4528 -6.1134,-14.7521 -16.0648,-43.7396 -14.8395,-43.2262 -22.448,-61.4946 -32.2526,-77.4407 -13.4192,-21.8249 -31.2382,-36.6929 -49.5678,-41.3589 -3.2727,-0.8331 -11.6822,-1.7692 -18.6878,-2.0803 l -12.7376,-0.5656 -0.9633,2.2474 c -0.5298,1.236 -6.5877,22.8775 -13.4621,48.092 -6.8743,25.2146 -16.4294,60.1595 -21.2335,77.6553 l -8.7347,31.8106 -25.8749,0.2489 -25.8749,0.2488 3.3371,-12.4117 c 1.8354,-6.8265 9.9134,-36.41 17.951,-65.7413 31.9966,-116.7631 45.7995,-167.2224 61.4233,-224.5454 8.9763,-32.9333 16.5052,-60.4345 16.7311,-61.1136 0.3359,-1.0104 10.7552,-1.1623 57.3197,-0.8354 48.3937,0.3396 58.1176,0.6354 64.9854,1.9765 30.1301,5.8837 51.4278,20.0044 62.2311,41.2604 4.5838,9.0188 6.3664,16.0652 7.0169,27.7375 1.6086,28.863 -12.2621,60.3828 -37.8005,85.8977 -15.3534,15.3393 -28.9571,24.1411 -49.9448,32.3152 l -3.7544,1.4622 5.7305,5.8202 c 13.3543,13.5633 20.4246,24.2135 33.6773,50.7293 9.5125,19.0325 18.0701,39.2835 26.7681,63.3453 9.5677,26.4677 13.0986,35.9701 16.5564,44.5573 1.9331,4.8006 3.37,8.8423 3.1932,8.9816 -0.501,0.3946 -54.6997,9.8904 -56.4513,9.8904 -0.9475,0 -2.3238,-1.7395 -3.5161,-4.4441 z m -63.6874,-212.1446 c 23.4285,-3.3382 38.4938,-9.8614 51.5699,-22.3295 9.8137,-9.3574 15.1788,-19.0055 19.434,-34.948 3.3725,-12.6358 3.4416,-23.4409 0.1942,-30.4091 -6.2307,-13.37 -19.7909,-21.3869 -41.6743,-24.6383 -5.8148,-0.864 -16.7109,-1.3463 -30.4943,-1.3498 l -21.4466,-0.01 -5.1414,18.946 c -2.8278,10.4203 -9.784,35.9815 -15.4582,56.8027 -5.6742,20.8212 -10.3167,38.465 -10.3167,39.2084 0,1.1565 3.1282,1.2648 21.6667,0.7498 11.9167,-0.331 26.1667,-1.243 31.6667,-2.0267 z m -2055.2381,209.1289 c -13.9118,-2.1293 -18.3624,-3.1405 -29.5238,-6.708 -22.1633,-7.084 -40.66198,-18.0924 -56.22879,-33.4613 -18.10383,-17.8737 -28.52358,-37.2392 -34.38837,-63.9122 -2.75413,-12.5257 -3.42196,-38.6006 -1.37849,-53.8224 6.35148,-47.3123 29.54677,-92.2927 67.47984,-130.8574 55.89291,-56.8234 131.52921,-86.953 205.71471,-81.946 35.9121,2.4238 62.8996,9.6427 103.8166,27.7701 6.6872,2.9626 12.3603,5.7074 12.607,6.0995 0.2467,0.3921 -5.4689,11.9073 -12.7014,25.5893 l -13.1499,24.8764 -7.0761,-4.3356 c -66.8629,-40.968 -157.0159,-40.1344 -221.3618,2.0468 -27.2651,17.8732 -49.0209,42.506 -63.2156,71.5752 -21.74097,44.523 -23.51295,89.9726 -4.76411,122.1946 2.31851,3.9845 7.69771,10.8497 12.11451,15.4609 15.585,16.2713 35.1869,26.0913 62.5319,31.3268 12.0912,2.3149 45.9821,2.3331 61.9047,0.033 30.4403,-4.397 60.1596,-13.9588 92.8572,-29.8757 8.6428,-4.2073 16.0357,-7.7984 16.4285,-7.9802 0.3929,-0.1818 0.7131,10.9668 0.7116,24.7748 v 25.1054 l -12.0578,4.9972 c -40.7898,16.905 -79.9727,27.5758 -115.5558,31.4698 -18.0365,1.9739 -50.4936,1.7628 -64.7619,-0.4211 z m 791.4285,0 c -13.8431,-2.1188 -18.3085,-3.1343 -29.5238,-6.7141 -21.7903,-6.9552 -40.7189,-18.2279 -56.2318,-33.4881 -18.0238,-17.7302 -28.5562,-37.3936 -34.4014,-64.2258 -1.9462,-8.9338 -2.2206,-12.7211 -2.1972,-30.3243 0.029,-21.699 0.9648,-29.134 6.1858,-49.1432 7.5866,-29.075 23.7464,-59.9343 45.3067,-86.5197 10.9717,-13.5287 34.7462,-36.057 49.5634,-46.9653 52.673,-38.7776 112.6992,-57.2961 172.8947,-53.3393 30.5608,2.0089 53.1678,7.2802 85.2579,19.8798 13.0579,5.1269 31.7172,13.5862 31.7172,14.3792 0,0.2819 -5.9248,11.6661 -13.1662,25.2982 l -13.1661,24.7855 -7.072,-4.3331 c -58.7601,-36.0032 -136.5293,-40.1065 -198.9767,-10.4985 -51.462,24.3996 -87.8144,70.1489 -100.1674,126.0602 -2.8415,12.861 -3.5248,39.0269 -1.3031,49.8984 8.5348,41.763 38.4581,68.5422 86.2324,77.1717 12.6424,2.2836 45.5478,2.2874 61.4286,0.01 30.9318,-4.4416 65.048,-15.6138 97.1194,-31.8041 6.2728,-3.1667 11.7371,-5.8979 12.1429,-6.0695 0.4057,-0.1715 0.7377,11.0107 0.7377,24.8494 v 25.1612 l -11.6667,4.7873 c -42.0601,17.2589 -80.2803,27.6644 -115.9524,31.5681 -18.0365,1.9739 -50.4935,1.7628 -64.7619,-0.4211 z m 811.9048,0.8163 c -36.0649,-3.2691 -67.1929,-14.2601 -89.2755,-31.5222 -40.1211,-31.363 -54.8721,-81.2183 -41.7193,-141.0029 10.7544,-48.8827 32.2447,-87.9444 67.5186,-122.7248 40.1505,-39.5888 91.4036,-64.5606 151.6066,-73.8666 16.6199,-2.569 52.4396,-2.3825 68.5363,0.3568 35.2682,6.002 61.7114,17.972 83.1124,37.6221 18.8002,17.2622 31.773,42.1547 36.5779,70.1866 6.2467,36.4434 -5.6614,91.6036 -28.331,131.2332 -41.9357,73.3096 -122.9426,122.5363 -213.5541,129.7736 -13.6896,1.0935 -21.9408,1.0801 -34.4719,-0.056 z m 59.5238,-49.4642 c 77.6635,-11.8909 138.3577,-64.5297 157.5357,-136.6271 8.7602,-32.9329 7.4727,-58.6028 -4.1529,-82.8012 -13.5125,-28.1258 -40.17,-45.8904 -78.6209,-52.3929 -11.5766,-1.9577 -36.9249,-1.9562 -50.3562,0 -62.1398,9.0643 -116.8123,47.0242 -143.47,99.6134 -14.411,28.4293 -21.9589,63.1815 -19.1257,88.0584 2.6744,23.483 11.9957,42.7566 27.7308,57.3388 15.1692,14.0578 33.4783,22.5838 57.6021,26.8233 13.539,2.3794 37.2602,2.3723 52.8571,-0.016 z m -1425.7143,45.5379 c 0,-0.6676 6.181,-23.7186 13.7355,-51.2244 7.5545,-27.5059 20.8715,-76.1141 29.5934,-108.0183 8.7219,-31.9042 21.8054,-79.6902 29.0745,-106.1913 15.1828,-55.3522 26.6442,-97.4775 26.6442,-97.9281 0,-0.1708 11.3572,-0.3105 25.2381,-0.3105 13.881,0 25.2381,0.2627 25.2381,0.5838 0,0.3211 -2.8124,10.68 -6.2499,23.0199 -3.4375,12.3398 -6.0382,22.644 -5.7794,22.8983 0.2588,0.2542 3.3927,-1.8488 6.9642,-4.6735 17.0568,-13.4901 47.3214,-29.7253 69.0192,-37.0246 23.4512,-7.8893 46.0348,-11.0759 67.1745,-9.4786 34.1253,2.5786 52.534,9.9782 70.4611,28.3225 9.0809,9.2924 14.4929,17.8759 18.8885,29.9576 5.2366,14.3931 6.6022,23.1239 6.6157,42.2942 0.02,28.2305 -2.9525,45.1004 -16.9787,96.3674 -4.9275,18.0104 -13.7669,50.4292 -19.6433,72.0417 -5.8763,21.6125 -14.4315,52.9787 -19.0117,69.7026 l -8.3275,30.4072 -25.4838,0.2494 c -21.1631,0.2071 -25.3996,0.034 -24.9871,-1.0223 0.2732,-0.6994 2.0679,-7.1269 3.9881,-14.2834 6.3272,-23.5808 28.1292,-104.2526 34.7439,-128.5592 21.1277,-77.6365 22.3654,-83.4551 22.3895,-105.2557 0.017,-15.0443 -0.1269,-16.3105 -2.6523,-23.3901 -8.9946,-25.2151 -20.7583,-36.7562 -44.9759,-44.1244 -8.2135,-2.4989 -9.3096,-2.5969 -29.0122,-2.5945 -19.0531,0 -21.2581,0.1834 -31.7258,2.6035 -43.6524,10.0922 -81.7457,32.7937 -92.3444,55.0321 -1.3076,2.7437 -6.2636,19.3034 -11.0132,36.7992 -4.7497,17.4958 -16.3683,60.0191 -25.8192,94.4962 -9.4508,34.4771 -21.3307,77.9477 -26.3998,96.6013 l -9.2164,33.9157 h -25.0739 c -19.9117,0 -25.074,-0.2498 -25.074,-1.2137 z m 951.8095,-0.4236 c 0.5239,-1.6842 19.7671,-72.4082 26.2841,-96.6013 2.0099,-7.4614 12.9373,-47.6691 24.283,-89.3504 11.3457,-41.6812 22.275,-81.8889 24.2873,-89.3503 14.226,-52.7473 25.9839,-95.0874 28.0605,-101.0455 3.7607,-10.7904 12.0664,-26.7173 18.7059,-35.87 11.2696,-15.5353 32.732,-33.0808 52.1871,-42.6628 30.2644,-14.9058 71.4403,-21.972 114.6426,-19.6737 20.223,1.0758 36.4238,2.844 47.049,5.1351 l 2.0709,0.4466 -3.6786,13.8001 c -5.991,22.4746 -8.464,31.3279 -8.8594,31.7163 -0.2049,0.2013 -5.6853,-0.4663 -12.1786,-1.4836 -25.5923,-4.0095 -54.357,-4.9644 -71.7898,-2.3832 -40.5507,6.0041 -66.3542,27.357 -83.6469,69.2195 -6.3685,15.4169 -25.417,73.9485 -25.417,78.1003 0,0.6458 23.6142,0.9584 72.3809,0.9584 39.8095,0 72.383,0.3158 72.3854,0.7017 0,0.386 -2.8648,10.9115 -6.3716,23.3902 l -6.376,22.6884 h -72.6393 -72.6394 l -1.0819,3.9764 c -1.3308,4.8905 -12.2664,43.1237 -31.3768,109.6998 -7.9763,27.7875 -15.6926,54.7329 -17.1473,59.8788 -3.3286,11.7749 -16.1076,56.515 -16.7689,58.7092 -0.4545,1.5079 -2.5636,1.6373 -26.684,1.6373 -24.5024,0 -26.1576,-0.1055 -25.6812,-1.6373 z m 1058.6667,1.0239 c 0,-0.3545 5.325,-20.0443 11.8334,-43.7551 6.5083,-23.7108 18.9172,-69.0035 27.5753,-100.6504 8.6582,-31.6469 22.7688,-83.2222 31.357,-114.6117 8.5882,-31.3896 18.5721,-67.9122 22.1865,-81.1614 l 6.5716,-24.0893 h 25.0182 25.0181 l -0.6321,2.5729 c -0.3476,1.4151 -3.2849,12.3617 -6.5273,24.3258 -3.2424,11.964 -5.5756,21.7528 -5.185,21.7528 0.3906,0 1.7575,-1.2227 3.0376,-2.7172 4.491,-5.2433 14.5946,-13.5295 23.5562,-19.3192 28.6373,-18.5012 62.9786,-29.5026 96.6667,-30.9676 39.4353,-1.7149 72.2534,12.3875 89.5993,38.5021 2.0507,3.0875 3.9744,5.8242 4.2747,6.0814 2.0626,1.7671 10.4117,29.066 10.4117,34.043 0,0.8305 0.1224,1.5101 0.272,1.5101 0.1496,0 7.9739,-7.4732 17.3873,-16.607 23.3484,-22.655 40.9042,-35.6099 62.8409,-46.3722 14.2538,-6.9929 27.2164,-11.5778 40.8778,-14.4582 10.1352,-2.1371 13.6534,-2.4197 30.0506,-2.4145 15.4249,0.01 20.2069,0.3494 28.2244,2.0328 19.0247,3.9946 30.1966,9.8435 43.2027,22.6183 18.5746,18.2445 26.6487,40.6289 26.6625,73.9186 0.01,13.789 -1.6548,31.0726 -4.2474,44.2108 -1.914,9.6987 -4.1346,18.204 -19.2337,73.6699 -7.0741,25.9864 -14.7763,54.4055 -17.1159,63.1534 -2.3395,8.7479 -6.3401,23.4837 -8.89,32.7462 -2.55,9.2625 -6.8402,25.0508 -9.5338,35.0852 -2.6936,10.0344 -5.1149,18.9811 -5.3807,19.8816 -0.4444,1.5061 -2.5009,1.6373 -25.657,1.6373 -13.8457,0 -25.174,-0.2351 -25.174,-0.5226 0,-0.708 16.8454,-62.546 43.93,-161.2638 17.375,-63.3281 20.5115,-78.793 19.5595,-96.4408 -1.3738,-25.4695 -11.3574,-40.7184 -36.3466,-55.516 -9.3205,-5.5192 -15.7625,-7.3297 -28.0078,-7.8714 -22.4366,-0.9925 -42.3556,5.5245 -67.2303,21.996 -17.0318,11.2781 -26.0425,18.6652 -42.4247,34.78 -24.1814,23.7869 -21.4819,18.5514 -35.0072,67.8936 -20.7086,75.5476 -47.5719,173.7686 -50.7296,185.4839 l -3.0891,11.4611 h -25.5652 c -14.0608,0 -25.5652,-0.1454 -25.5652,-0.3231 0,-0.1777 9.013,-33.5437 20.0287,-74.1468 11.0158,-40.603 23.2208,-85.6123 27.1223,-100.0206 3.9015,-14.4083 8.6844,-33.7754 10.6287,-43.0379 3.3679,-16.0443 3.5378,-17.726 3.592,-35.553 0.046,-15.1864 -0.2632,-19.858 -1.6419,-24.7936 -5.2092,-18.6483 -17.0176,-32.8644 -31.8966,-38.4004 -10.0712,-3.7471 -20.1001,-4.8919 -38.3093,-4.3727 -14.4474,0.4119 -18.1251,0.8473 -27.6191,3.2702 -28.0933,7.1694 -46.627,18.62 -74.3536,45.9376 l -16.7345,16.4877 -14.1032,51.9261 c -14.6812,54.0544 -31.3497,115.1093 -46.4879,170.2803 l -8.8568,32.2784 -24.9701,0.2495 c -13.7335,0.1372 -24.9701,-0.041 -24.9701,-0.3951 z M 2103.37,740.36156 c 0,-0.3927 2.1898,-8.5003 4.8662,-18.0168 2.6765,-9.5165 5.7638,-20.5657 6.8607,-24.5537 l 1.9943,-7.2509 h 65.5204 c 51.8082,0 65.5097,0.2447 65.4698,1.1695 -0.028,0.6432 -2.9641,11.9056 -6.5251,25.0274 l -6.4746,23.858 -65.8558,0.2403 c -36.2208,0.1322 -65.8559,-0.081 -65.8559,-0.4738 z M 725.10382,462.87776 c -2.45114,-0.6811 -5.99719,-2.3927 -7.88012,-3.8036 -2.69349,-2.0182 -11.96943,-14.2716 -17.98276,-23.7549 -0.47006,-0.7413 0.89407,-0.3985 3.33334,0.8378 6.67391,3.3823 17.10185,3.51 28.89091,0.3538 13.2607,-3.5501 32.98656,-10.3193 41.10475,-14.1055 10.54996,-4.9204 16.5143,-12.7991 16.5143,-21.815 0,-3.8282 -2.62162,-8.8061 -7.50127,-14.2434 -6.85203,-7.6351 -7.54646,-13.0505 -2.85594,-22.2717 2.55742,-5.0277 4.59096,-7.16464 14.4542,-15.1892 12.79715,-10.41155 19.36887,-14.08419 29.96628,-16.74681 9.56995,-2.40447 16.21651,-2.27866 28.01892,0.53035 11.19384,2.66417 18.63895,2.91759 27.23351,0.92698 7.16775,-1.66015 12.29076,-4.11439 16.9159,-8.10379 5.43016,-4.68377 12.4432,-19.79922 15.0268,-32.38782 l 1.2076,-5.88402 7.71324,11.96546 c 4.24229,6.581 7.99259,12.88354 8.33401,14.00564 1.43334,4.71072 -7.68944,29.18758 -13.26238,35.58363 -5.92142,6.79599 -18.29056,11.45358 -30.48896,11.48048 -3.14286,0.01 -10.13445,-1.0394 -15.53687,-2.3252 -22.64245,-5.38897 -36.6593,-1.69684 -57.82545,15.2316 -10.76423,8.6091 -14.89777,13.3217 -17.16727,19.5723 -2.15007,5.9216 -1.67136,7.9463 3.74879,15.8552 7.13099,10.4054 8.22823,12.7588 8.34616,17.9009 0.1335,5.8211 -2.56565,11.0182 -8.29577,15.9732 -5.17498,4.475 -21.58296,11.1139 -42.20411,17.0763 -14.57856,4.2153 -23.18127,5.1785 -29.80781,3.3373 z m -140.78148,-2.807 c -8.25402,-3.469 -15.18956,-7.1035 -22.14259,-11.6034 -5.54846,-3.591 -7.6341,-5.8445 -15.2381,-16.4651 -10.29306,-14.3765 -11.19371,-15.9238 -11.1818,-19.2102 0.0102,-2.8166 4.49507,-10.947 7.50899,-13.6126 2.02121,-1.7877 2.03679,-1.7791 9.39617,5.186 4.05439,3.8372 9.51447,8.6427 12.13352,10.6789 2.61905,2.0362 4.97619,3.9341 5.23809,4.2174 0.7459,0.8071 14.47147,10.7256 17.31709,12.5139 2.10349,1.3219 2.94528,1.4068 4.76191,0.48 4.92886,-2.5145 10.69472,-8.0384 15.66731,-15.0098 2.89089,-4.053 6.83061,-8.6562 8.75493,-10.2294 6.05772,-4.9525 16.22173,-9.2972 25.4471,-10.8776 10.48368,-1.796 27.15821,-1.2535 34.41203,1.1197 9.59128,3.1378 15.47912,10.4004 15.52431,19.149 l 0.0217,4.2102 -14.52464,-0.3111 c -10.76494,-0.2305 -16.18868,0.069 -20.95323,1.1561 -12.95981,2.9577 -24.09465,10.5364 -31.02353,21.1156 -10.66699,16.2866 -27.22676,23.3313 -41.11931,17.4924 z m -374.93867,-25.185 c -3.88495,-4.0299 -20.826,-28.0577 -23.72574,-33.6507 -2.97764,-5.7433 -2.88622,-8.8019 0.41493,-13.882 3.55453,-5.4701 9.53189,-10.7591 19.59277,-17.3366 l 8.21157,-5.3684 3.5194,4.1269 c 1.93567,2.2698 6.58261,7.2442 10.32653,11.0541 l 6.80712,6.9272 5.13414,-2.8578 c 8.16332,-4.5439 13.75706,-6.0144 22.55883,-5.9301 8.38006,0.08 12.69803,1.4862 14.45184,4.7056 1.73886,3.1918 1.05994,8.7722 -1.78636,14.6827 -2.57227,5.3415 -3.1003,5.8519 -7.55816,7.3065 -7.18533,2.3446 -14.82108,7.6092 -25.978,17.9112 -10.96284,10.1228 -19.66541,15.3521 -25.54858,15.3521 -2.69999,0 -4.15178,-0.6875 -6.42029,-3.0407 z m 318.92819,-58.1042 c -2.21828,-1.2092 -20.45481,-25.90833 -19.6866,-26.66301 0.22713,-0.22312 1.12343,0.17358 1.99179,0.88156 2.71164,2.21082 11.43501,1.46318 21.80053,-1.86844 11.02554,-3.54376 18.3907,-3.67814 24.78125,-0.45215 6.0054,3.03156 12.66556,15.22934 11.27893,20.65684 -0.4604,1.802 -1.17814,2.1621 -4.30993,2.1621 -2.06665,0 -8.24088,1.4736 -13.72052,3.2746 -10.59944,3.4838 -18.16915,4.1707 -22.13545,2.0085 z M 216.431,354.42365 c -4.53516,-6.0643 -15.91819,-22.29489 -15.91819,-22.69709 0,-0.22681 1.17858,-0.18797 2.61905,0.0863 1.53148,0.29161 5.69624,-0.49513 10.02943,-1.8946 8.55866,-2.76415 11.80367,-2.97013 14.75866,-0.93683 4.15605,2.85974 2.18207,15.34359 -3.78656,23.94692 -1.72941,2.49282 -3.65829,4.53321 -4.28639,4.5342 -0.62811,10e-4 -2.16531,-1.36651 -3.416,-3.03891 z m 401.58309,-12.82213 c -10.12467,-7.31462 -14.74736,-20.83305 -11.449,-33.48105 6.07091,-23.27969 30.81143,-45.31035 64.9001,-57.79152 32.82333,-12.01788 65.04439,-12.8869 86.82328,-2.34169 11.97287,5.7972 19.19582,13.9971 21.66847,24.59927 l 0.60668,2.60132 -4.70289,-2.34116 c -9.21085,-4.58528 -17.60774,-6.31139 -33.18892,-6.82249 -21.64327,-0.70996 -38.47379,2.55104 -60.25424,11.67456 -33.18909,13.90244 -55.25868,36.03626 -59.28576,59.4583 l -1.24519,7.24219 z m -338.92985,-2.74639 c -11.60568,-5.26203 -13.47622,-17.55649 -5.21134,-34.2525 4.95432,-10.00828 11.19693,-17.88215 23.12749,-29.17094 32.43088,-30.68635 78.55713,-47.72247 98.35329,-36.32549 5.62069,3.23592 8.01628,7.91662 8.01628,15.66286 v 5.90953 l -3.92886,-0.36808 c -9.1645,-0.85858 -25.92515,3.14186 -40.7395,9.72372 -5.15129,2.28866 -10.72178,4.1612 -12.37886,4.1612 -4.33453,0 -14.03315,3.41718 -18.75314,6.60742 -5.20552,3.51841 -9.33521,8.44426 -12.50139,14.91152 -1.38559,2.83021 -4.50695,7.25095 -6.93636,9.82386 -9.1552,9.69599 -19.10569,25.24003 -21.20442,33.12422 -0.64147,2.40979 -2.83439,2.46367 -7.84319,0.19268 z m 163.021,-62.82903 c -3.94724,-3.0502 -4.09896,-6.9073 -0.62031,-15.76887 2.39494,-6.1009 4.24151,-8.98682 8.8407,-13.81678 5.07573,-5.3304 7.32979,-6.81886 17.76223,-11.72924 12.99888,-6.11836 18.71536,-10.10912 22.03182,-15.38076 1.89572,-3.01331 2.03081,-3.90359 1.1712,-7.71852 -0.53443,-2.37178 -1.29295,-5.15438 -1.6856,-6.18354 -0.39264,-1.02917 1.11362,0.86543 3.34725,4.21022 8.88608,13.30662 13.41461,21.23639 14.79867,25.91351 1.32676,4.48353 1.31334,5.1873 -0.15705,8.23132 -2.26973,4.69885 -9.34969,10.55819 -16.60515,13.74232 -14.81918,6.50355 -18.696,8.80938 -24.46092,14.54873 l -5.8895,5.86337 h -8.02968 c -6.64436,0 -8.45652,-0.32983 -10.50366,-1.91176 z m 134.25159,-8.04641 c -4.80748,-6.89718 -5.27131,-7.91786 -3.33333,-7.33531 8.29337,2.49298 13.2036,5.94993 13.2036,9.29574 0,2.02986 -2.45635,6.1554 -3.62543,6.08905 -0.36316,-0.0206 -3.17333,-3.64287 -6.24484,-8.04948 z m 273.6238,4.37261 c -5.6371,-2.92794 -9.03296,-7.07983 -10.74844,-13.14139 -2.14535,-7.5805 -1.98588,-10.82964 0.75724,-15.42797 2.90425,-4.86844 7.25589,-8.17555 15.52871,-11.80133 13.65205,-5.98338 16.11596,-7.2401 19.21125,-9.79874 1.75853,-1.45364 3.9243,-4.23812 4.81282,-6.18774 l 1.61549,-3.54476 7.77279,12.14318 c 9.0761,14.17929 9.43799,15.97518 4.33698,21.52194 -3.36847,3.66283 -8.80926,6.61662 -21.47235,11.6573 -7.49162,2.98213 -13.47513,7.73311 -16.09642,12.78074 -1.0402,2.00305 -1.9897,3.62329 -2.11001,3.60055 -0.1203,-0.0227 -1.74393,-0.83354 -3.60806,-1.80178 z M 336.72987,219.49393 c -0.63747,-0.75457 -0.99187,-1.86462 -0.78755,-2.46677 0.20431,-0.60215 1.11185,0.0152 2.01675,1.37195 1.72884,2.59207 0.76267,3.45261 -1.2292,1.09482 z m 96.49616,-6.16073 c -0.55059,-0.54089 -3.52917,-1.98969 -6.61905,-3.21955 -8.35788,-3.32667 -7.95485,-6.67714 2.09507,-17.41639 2.94671,-3.14883 5.45413,-6.80213 5.7854,-8.42933 0.55995,-2.75042 0.9414,-2.33249 9.0193,9.88181 4.63905,7.01452 8.43463,13.32433 8.43463,14.02178 0,1.52676 -11.31656,6.14512 -15.05763,6.14512 -1.46116,0 -3.10713,-0.44254 -3.65772,-0.98344 z m 329.96402,-2.21201 c -12.7409,-1.67684 -15.11214,-5.49586 -9.3439,-15.04886 1.55356,-2.57292 2.83197,-5.51687 2.8409,-6.5421 0.01,-1.13543 2.36338,1.60745 6.02087,7.01704 8.13684,12.03474 10.48787,15.91994 9.54923,15.78059 -0.43557,-0.0647 -4.51577,-0.60767 -9.0671,-1.20667 z"
       id="path2" />
  </g>
</svg>
